<?xml version="1.0" encoding="UTF-8"?><svg id="Capa_1" xmlns="http://www.w3.org/2000/svg" viewBox="0 0 28.9 25.89"><defs><style>.cls-1{fill:#000;fill-rule:evenodd;stroke-width:0px;}</style></defs><path class="cls-1" d="M11.34,22.8c.74-.16,1.41-.6,2-.91.34.17.93.85,2.43,1.41,3.69,1.38,7.38,0,9.55-2.9.86-1.15,1.41-2.77,1.51-4.28.15-2.34-.82-4.52-1.95-5.78-1.32-1.46-2.84-2.44-4.93-2.77-2.49-.39-5.18.5-6.61,1.88-.09.09-.17.14-.27.22l-.69.74c-1.51,1.79-2.2,4.31-1.76,6.7.14.77.38,1.48.72,2.17.09.18.28.48.33.64-.55.31-1.28.55-1.97.68-.57-.91-1.04-2.43-1.2-3.68-.34-2.7.45-5.55,2.08-7.55.62-.77,1-1.22,1.82-1.83.23-.17.45-.33.72-.5,4.54-2.92,10.56-1.81,13.76,2.49,2.34,3.14,2.79,7.53.68,11.22-.33.57-.64.98-1,1.44-.39.5-.78.83-1.23,1.25-.7.66-1.94,1.41-3.06,1.81-3.62,1.3-7.4.62-10.28-1.81-.07-.06-.09-.1-.16-.16-.17-.15-.33-.25-.48-.48h0Z"/><path class="cls-1" d="M2.23,16.84c-.06.03,0,0-.06.01h-.22c-.03.1-.11.14-.11.28,0,.21.05.07.11.24h.31c.04-.13.05-.04.11-.21.02.01.29.52.32.58.23.44.91,1.27,1.26,1.56.8.66,1.32,1.02,2.35,1.41,2.14.8,4.41.32,6.05-.73.69-.44,1.47-1.2,1.89-1.87,1.17-1.85,1.56-3.85.85-6.02-.24-.74-.68-1.56-1.17-2.14-.07-.08-.18-.19-.23-.28.04-.07,0,0,.07-.08l.61-.44c.17-.11.55-.36.77-.43.39.32,1.07,1.53,1.29,2.04,1.21,2.74.9,5.53-.52,7.98-.53.92-1.2,1.59-1.92,2.19-1.82,1.53-4.58,2.25-7.08,1.75C.79,21.43-1.88,14.44,1.43,9.51c.35-.52,1.05-1.39,1.57-1.78l.46-.37c.15-.11.33-.25.51-.34l1.53,1.03c.06.07-.01-.05.05.07-.53.16-1.67,1.08-2.07,1.55-1.57,1.84-2.15,4.16-1.45,6.54.06.21.17.44.21.62h0ZM2.37,17.16c-.06.17-.07.07-.11.21h-.31c-.06-.17-.11-.03-.11-.24,0-.14.08-.18.11-.28h.22c.06,0,0,.02.06-.02l.14.32h0Z"/><path class="cls-1" d="M12.77,6.75c-.07.08-.28.21-.37.27-.28.21-.86.66-1.07.91-.07,0-.96-.32-1.41-.41-.64-.13-1.05-.09-1.69-.13l.84-1.72c1.2,0,2.83.56,3.69,1.08h0Z"/><path class="cls-1" d="M7.22,7.57l.12-4.7,2.54-.66c-.18.44-2.46,4.99-2.66,5.35h0ZM6.51,7.75l-1.22-.82c-.41-.28-.84-.55-1.24-.85-.4-.29-.81-.54-1.22-.83-.23-.16-1.12-.73-1.24-.86l2.52-.65c.08.08,2.37,3.89,2.4,4.02h0ZM5.84,5.55c.02-.08-.04.03.05-.04.27-.2.14-.44-.04-.54.05-.08.16-.13.1-.28-.17,0-.22.13-.31.24-.03-.25-.09-.26-.35-.31-.03.15-.01.07-.04.1l-.76-1.08c.13-.09,2.24-.64,2.5-.66l-.36,3.72c-.07-.04-.78-1.05-.8-1.17h0ZM4.11,3.22c-.17-.11-1.1-1.09-1.33-1.34-.13-.14-.33-.32-.43-.46l2.45-.65c-.05.28-.61,2.34-.68,2.44h0ZM9.87,1.9l-2.46.64c.02-.09.58-2.32.7-2.45l1.76,1.81h0ZM6.87,2.69l-2.44.63c.01-.06.58-2.3.69-2.44.49.48,1.02,1.07,1.53,1.54.12.11.16.11.23.27h0ZM7.1,2.43s-.02,0-.06-.05l-.38-.39c-.42-.45-.94-.92-1.32-1.35l2.44-.65c-.04.28-.59,2.29-.68,2.43h0ZM2.87,2.44c-.26-.07-.24.01-.41.1l.06.34c.11.04.22.11.34.03.11-.06.1.08.15-.35.06.04.84.84.89.91l-2.45.65.66-2.44.4.35c.06.06.11.14.18.2.04.04.06.04.09.08.08.08.05.05.1.14h0ZM5.84,5.55c-.11-.07-.53-.69-.59-.82.03-.04,0,.04.04-.1.26.05.32.06.35.31.09-.11.14-.24.31-.24.07.15-.04.2-.1.28.19.09.31.33.04.54-.09.07-.03-.04-.05.04h0ZM3,2.56c-.04.44-.04.29-.15.35-.12.08-.23,0-.34-.03l-.06-.34c.17-.08.15-.17.41-.1.05,0,.03-.02.08.03.09.08.02,0,.05.08h0ZM11.1,9.85c-.5.27-.69-.34-.29-.44.38-.1.32.27.29.44h0Z"/></svg>