<?xml version="1.0" encoding="UTF-8"?><svg id="Capa_1" xmlns="http://www.w3.org/2000/svg" viewBox="0 0 15.3 17.53"><defs><style>.cls-1{fill:#dabf5f;fill-rule:evenodd;stroke-width:0px;}</style></defs><path class="cls-1" d="M0,7.04c0,.49.83.31,1.73.31.6,0,1.51.1,1.94-.1,0,2.48-.7,6.58-3.57,7.24l1.47,3.04c.93-.05,1.97-1.03,2.59-1.64.72-.71,1.35-1.66,1.75-2.64,1.63-4.02,1.24-8.48,1.24-13.25H0v7.04h0Z"/><path class="cls-1" d="M8.16,7.04c0,.49.83.31,1.73.31.63,0,1.59.11,2.04-.1,0,2.55-.79,6.6-3.57,7.24l1.47,3.04c1.44-.09,3.22-2.26,3.96-3.53.36-.62.86-2.01,1.04-2.73.25-.97.47-2.16.47-3.31V0h-7.14v7.04h0Z"/></svg>