<?xml version="1.0" encoding="UTF-8"?><svg id="Capa_1" xmlns="http://www.w3.org/2000/svg" viewBox="0 0 115.78 97.69"><defs><style>.cls-1{fill:#000;stroke-width:0px;}</style></defs><path class="cls-1" d="M110.12,97.69H26.46c-.05-.05-.1-.12-.17-.14-3.85-1.25-5.49-3.48-5.49-7.5,0-7.12,0-14.23,0-21.35v-1.31c-3.35,0-6.58,0-9.81,0-1.6,0-2.65-.93-2.62-2.3.02-1.34,1.02-2.21,2.59-2.22,2.86-.01,5.72,0,8.59,0,.4,0,.8,0,1.26,0v-1.39c0-7.72.01-15.44-.01-23.16,0-1.11.35-1.92,1.22-2.63,3.75-3.02,7.46-6.1,11.2-9.13.64-.52.93-1.04.92-1.89-.04-5.91-.04-11.82-.01-17.74.02-3.28,2.01-5.81,5.17-6.71.17-.05.34-.14.5-.22h20.13c1.34.9,1.81,1.78,1.51,2.83-.33,1.18-1.21,1.69-2.95,1.69-5.58,0-11.15,0-16.73,0-2.34,0-3.11.77-3.11,3.11,0,12.77,0,25.54-.02,38.31,0,.86.29,1.35.95,1.85,9.3,7.04,18.6,14.1,27.87,21.19.67.51,1.06.51,1.72,0,9.27-7.09,18.56-14.15,27.87-21.19.67-.51.94-1,.94-1.86-.03-12.73-.02-25.46-.02-38.2,0-2.49-.74-3.22-3.23-3.22-5.69,0-11.38,0-17.06,0-1.4,0-2.37-.73-2.54-1.91-.19-1.28.58-2.01,1.56-2.61h20.13c4.27,1.29,5.86,4.13,5.73,8.5-.16,5.38-.02,10.76-.06,16.14,0,.84.25,1.38.9,1.9,3.66,2.95,7.3,5.93,10.92,8.92.56.47,1.01,1.08,1.51,1.63v54.95c-.47.97-.85,1.99-1.43,2.88-.98,1.52-2.58,2.21-4.23,2.77ZM56.04,66c-9.14,9.14-18.2,18.2-27.08,27.08h79c-9.08-9.08-18.13-18.13-27.21-27.22-.21.16-.48.35-.75.56-3.36,2.55-6.71,5.11-10.08,7.65-1.17.88-2.1.85-3.28-.02-.27-.2-.54-.41-.81-.61-3.35-2.55-6.71-5.09-9.79-7.43ZM25.37,89.32c8.82-8.82,17.65-17.65,26.5-26.5-8.73-6.63-17.55-13.34-26.5-20.15v46.64ZM84.7,62.84c8.85,8.86,17.68,17.68,26.49,26.5v-46.63c-8.95,6.81-17.78,13.52-26.49,20.13ZM110.07,37.85c-2.57-2.1-4.99-4.07-7.51-6.13v11.83c2.56-1.95,4.97-3.78,7.51-5.71ZM34.04,43.56v-11.84c-2.58,2.11-5.01,4.09-7.51,6.14,2.53,1.92,4.94,3.76,7.51,5.7Z"/><path class="cls-1" d="M0,78.92c.62-1.19,1.58-1.64,2.94-1.61,3.69.07,7.37.02,11.06.02,1.71,0,2.76.9,2.72,2.31-.03,1.37-1.05,2.21-2.71,2.21-3.65,0-7.3-.04-10.95.02-1.38.03-2.41-.37-3.07-1.6v-1.36Z"/><path class="cls-1" d="M68.97,0c.18.12.36.25.54.38.88.64,1.27,1.49.92,2.54-.34,1.03-1.1,1.61-2.2,1.59-1.05-.02-1.77-.6-2.09-1.59-.34-1.06.05-1.9.92-2.54.18-.13.36-.25.54-.38.45,0,.9,0,1.36,0Z"/><path class="cls-1" d="M86.62,32.87c-.02,10.1-8.23,18.26-18.36,18.25-10.16-.01-18.32-8.22-18.3-18.42.02-10.15,8.26-18.29,18.47-18.24,10.09.04,18.21,8.26,18.19,18.41ZM82.09,32.76c0-7.61-6.18-13.78-13.79-13.78-7.62,0-13.8,6.16-13.81,13.76,0,7.67,6.18,13.85,13.85,13.84,7.6-.01,13.76-6.2,13.75-13.83Z"/><path class="cls-1" d="M67.09,33.19c1.85-1.86,3.52-3.54,5.19-5.21,1.15-1.15,2.52-1.25,3.48-.28.98.98.88,2.29-.29,3.47-2.15,2.16-4.3,4.32-6.47,6.47-1.21,1.2-2.46,1.21-3.65.04-1.21-1.19-2.41-2.38-3.59-3.59-1.09-1.12-1.15-2.43-.17-3.39.96-.94,2.27-.87,3.39.24.69.69,1.33,1.43,2.1,2.26Z"/></svg>