<?xml version="1.0" encoding="UTF-8"?>
<svg id="Capa_1" data-name="Capa 1" xmlns="http://www.w3.org/2000/svg" viewBox="0 0 12.31 16.15">
  <defs>
    <style>
      .cls-1 {
        fill: #000;
      }

      .cls-1, .cls-2, .cls-3, .cls-4, .cls-5, .cls-6 {
        stroke-width: 0px;
      }

      .cls-2 {
        fill: #f8f6f7;
      }

      .cls-3 {
        fill: #070707;
      }

      .cls-4 {
        fill: #383838;
      }

      .cls-5 {
        fill: #333;
      }

      .cls-6 {
        fill: #fff;
      }
    </style>
  </defs>
  <polygon class="cls-2" points="12.14 13.27 12.14 14.02 10.28 14.02 10.28 13.27 12.14 13.27 12.14 13.27"/>
  <polygon class="cls-1" points="10.9 1.73 12.31 13.52 10.38 13.52 9.53 9.07 10.9 1.73 10.9 1.73"/>
  <polygon class="cls-2" points=".16 13.27 .16 14.02 2.03 14.02 2.03 13.27 .16 13.27 .16 13.27"/>
  <polygon class="cls-1" points="1.41 1.73 0 13.52 1.93 13.52 2.77 9.07 1.41 1.73 1.41 1.73"/>
  <path class="cls-3" d="M6.28.01l.06,14.32s-2.14,1.81-2.26,1.81-2.65-1.58-2.71-1.72.51-1.88.63-2.73c.13-.85.38-1.99.32-2.75S1.36,1.86,1.42,1.72c.06-.14,3.02-1.33,3.11-1.35.03,0,.1-.12.11-.37.47.01,1.64.01,1.64.01h0Z"/>
  <path class="cls-3" d="M6.15.01v14.47s1.96,1.67,2.08,1.67,2.65-1.58,2.71-1.72-.5-1.88-.63-2.73-.38-1.99-.32-2.75.96-7.08.9-7.22c-.06-.14-3.02-1.33-3.11-1.35-.03,0-.1-.12-.11-.37-.47,0-1.52,0-1.52,0h0Z"/>
  <polygon class="cls-6" points="4.51 .38 6.15 7.33 6.33 .96 4.51 .38 4.51 .38"/>
  <polygon class="cls-5" points="4.62 .01 6.15 7.33 6.15 8.58 4.34 4.63 4.77 3.59 4 3.34 4.14 .52 4.62 .01 4.62 .01"/>
  <polygon class="cls-4" points="4.62 .01 4.51 .38 4.84 1.77 6.15 .9 4.62 .01 4.62 .01"/>
  <path class="cls-6" d="M4.23,11.35l-2.1-.5c-.03.2-.07.39-.1.57l2.06.49.13-.56h0Z"/>
  <polygon class="cls-2" points="7.79 .38 6.15 7.33 6.15 .9 7.79 .38 7.79 .38"/>
  <polygon class="cls-5" points="7.69 .01 6.15 7.33 6.15 8.58 7.97 4.63 7.54 3.59 8.31 3.34 8.17 .52 7.69 .01 7.69 .01"/>
  <polygon class="cls-4" points="7.69 .01 7.79 .38 7.47 1.77 6.15 .9 7.69 .01 7.69 .01"/>
  <path class="cls-6" d="M8.08,11.35l2.1-.5c.03.2.07.39.1.57l-2.06.49-.13-.56h-.01Z"/>
  <polygon class="cls-2" points="8.39 3.96 9.68 3.96 9.23 3.26 8.39 3.96 8.39 3.96"/>
  <polygon class="cls-6" points="9.78 4.15 8.27 4.15 8.27 3.91 9.78 3.91 9.78 4.15 9.78 4.15"/>
</svg>