<?xml version="1.0" encoding="utf-8"?>
<!-- Generator: Adobe Illustrator 28.3.0, SVG Export Plug-In . SVG Version: 6.00 Build 0)  -->
<svg version="1.1" id="Capa_1" xmlns="http://www.w3.org/2000/svg" xmlns:xlink="http://www.w3.org/1999/xlink" x="0px" y="0px"
	 viewBox="0 0 34.9 69.6" style="enable-background:new 0 0 34.9 69.6;" xml:space="preserve">
<path d="M12.5,50.8c0.3,0.6,0.5,1.2,0.8,1.8c0.4,0.9,0.4,1.8,0.2,2.8c-0.3,1.2-1.3,1.8-2.4,1.3c-0.7-0.3-1.4-0.8-1.8-1.3
	c-1-1.3-1.8-2.7-2.7-4.1c-0.6-1-1.2-2.1-1.8-3.2c-0.4,1.2-0.7,2.3-1.1,3.3c-0.2,0.5-0.4,1.1-0.7,1.6c-0.6,1.1-1.7,1.5-2.9,1.3
	c-1.6-0.4-3-1.2-4.2-2.3c-0.2-0.2-0.2-0.8-0.2-1.2c0.1-0.6-0.1-1-0.7-1.4c-1.1-0.6-1.7-1.8-2.2-2.9c-0.1-0.3,0-0.8,0.1-1.1
	c0.2-0.9,0.5-1.8,0.7-2.7c0.3-0.9,0.6-1.7,0.4-2.7c0-0.4,0.1-0.9,0.3-1.2c1.6-2.2,3.2-4.4,5-6.5c3.4-3.8,7-7.5,10.7-11.2
	c0-0.3-0.3-0.7,0.2-1c0.2-0.1,0.1-0.9-0.1-1.3c-1-1.8-1.1-3.8-0.8-5.7c0.2-1.8,0.5-3.6,1.1-5.3c0.7-1.7,1.1-3.4,1.1-5.1
	c0-0.2,0.1-0.4,0.1-0.7c0.3,0.1,0.6,0.1,0.9,0.2c0.3,0.1,0.8,0.1,0.8,0.6c0,0.1,0.2,0.3,0.4,0.4c0.9,0.5,1.7,1.1,2.6,1.6
	c0.2,0.1,0.5,0.1,0.7,0c1.1-0.7,2.3-1.4,3.4-2.1c0.7-0.4,1.5-0.1,1.6,0.6c0.1,0.7,0.1,1.3,0.3,2c0.2,0.6,0.4,1.3,0.7,1.8
	c1.2,2,2.3,4,2.5,6.3c0,0.7,0,1.4-0.2,2c-0.4,1.4-0.9,2.7-1.4,4.2c0.2,0.3,0.5,0.6,0.1,1.1c-0.1,0.1,0,0.5,0.1,0.6
	c1,1.4,2,2.9,3.1,4.3c1.9,2.3,3.8,4.5,5.8,6.6c0.8,0.9,1.9,1.6,2.9,2.4c0.8,0.6,1.5,1.2,2.2,1.9c0.9,0.8,0.9,0.8,0.3,1.9
	c1.3,1.8,2.6,3.6,3.8,5.4c0.5,0.7,1,1.3,1.4,2c0.5,0.7,0.3,1.2-0.5,1.3c-0.5,0.1-0.8,0.3-0.9,0.8c-0.1,0.3-0.3,0.6-0.4,0.9
	c0.1,0.2,0.2,0.4,0.4,0.6c-0.9,0.7-1.9,0.8-2.9,0.7c-2.1-0.2-4-1-5.1-2.9c-0.1-0.2-0.3-0.4-0.5-0.6c-0.7-0.6-1.3-0.6-1.9,0
	c-0.9,1-1.4,2.1-1.3,3.5c0.1,1.1-0.2,2-1.2,2.6c-0.6,0.4-1.2,0.8-1.7,1.2c-0.8,0.5-1.6,0.5-2.4,0.4c-0.3,0-0.7-0.1-1-0.2
	c-0.9-0.2-1.7,0-2.3,0.7c-0.2,0.2-0.5,0.4-0.7,0.7c-1,0.8-2.1,1-3.2,0.3c-1.9-1.1-3.6-2.4-5-4c-0.2-0.3-0.5-0.5-0.7-0.8
	C12.6,50.8,12.6,50.8,12.5,50.8z M17.6,8.5c0.3,0.4,0.6,0.7,0.9,1.1c0.6-0.7,1.1-1.4,1.7-2.1c-0.5-0.3-0.9-0.5-1.3-0.7
	C18.4,7.4,18,7.9,17.6,8.5z M20.8,4.2c-0.5,0.7-1,1.3-1.4,1.9c0.3,0.2,0.5,0.3,0.8,0.4c0.2,0.1,0.5,0.2,0.7,0.1
	C20.9,6.5,21.1,6.2,21,6C21,5.4,20.9,4.9,20.8,4.2z M15.9,6.3c0.4,0.5,0.8,0.9,1.2,1.4c0.2-0.3,0.4-0.5,0.6-0.7
	c0.2-0.2,0.3-0.4,0.5-0.6C17,5.6,17,5.6,15.9,6.3z M14.2,7.2c0.7,0.6,1.3,1.1,1.9,1.7c0.1-0.1,0.2-0.3,0.3-0.4
	c-0.3-0.4-0.6-0.7-0.9-1.1C15.2,6.7,14.8,6.7,14.2,7.2z M13.2,4.2c-0.1,0.7-0.1,1.2-0.1,1.7c0,0.4,0.2,0.7,0.7,0.5
	c0.2-0.1,0.5-0.2,0.7-0.3C14.1,5.5,13.7,4.9,13.2,4.2z M19.6,4.4c0,0-0.1-0.1-0.1-0.1c-0.6,0.3-1.2,0.7-1.8,1.1
	c0.3,0.2,0.6,0.3,0.9,0.5C18.9,5.3,19.3,4.8,19.6,4.4z M16.1,5.3c-0.6-0.4-1.1-0.6-1.6-0.9c0,0-0.1,0.1-0.1,0.1
	c0.3,0.4,0.6,0.8,0.9,1.2C15.6,5.5,15.8,5.4,16.1,5.3z M18,10.2c-0.4-0.4-0.7-0.7-1-1.1c-0.1,0.2-0.3,0.4-0.4,0.6
	C17,9.9,17.1,10.7,18,10.2z"/>
</svg>
