<?xml version="1.0" encoding="UTF-8"?><svg id="Capa_1" xmlns="http://www.w3.org/2000/svg" viewBox="0 0 30.47 30.23"><defs><style>.cls-1,.cls-2{fill:#000;stroke-width:0px;}.cls-2{fill-rule:evenodd;}</style></defs><path class="cls-2" d="M7.49,26.74l5.59-2.67c-.52-1.2-4.31-4.7-4.7-11.35-.48.48-1.39,2.52-1.72,3.2-.48,1.01-1.32,2.2-1.28,3.44.07,2.08.92,6.19,2.1,7.37h0Z"/><path class="cls-1" d="M22.22,13.61c-.77.11.11.13-1.33.32-.73.1-.57.36-2.61.71l-1.21-1.51c.47-.26.91-.62,1.48-.85.83-.33,1.41-.1,1.66-.76-1.02-.78-3.08.92-3.61,1.23l-1.07-.94.77-.45c.03-.66-.18-.78-.44-1.14l.95-.44c0-.75-.23-.75-.64-1.19.42-.46.63-.25.82-.98-.27-.45-.3-.43-.9-.6.34-.68.16-.15.47-.63.23-.37.26-.08.12-.59-.03-.01-.1-.06-.11-.02l-.3.03c-.21.1-.78.7-.95,1.17.33.6.41.41.82.84-1.12.53-.91.89-.24,1.56.02.02.06.06.09.09-.62.17-.58.12-.93.48.07.67.17.62.5,1.14-1.87.13-2.97-2.23-4.96-2-1.85.21-1.31,3.78-1.04,5.3.67,3.82,2.52,7.25,4.59,9.19,1.12-.57,2.25-1.07,3.4-1.63.63-.31,3.17-1.44,3.39-1.85.86-1.69-1.62-3.89-2.06-4.96,2.74-.21.98-.42,2.24-.5.8-.05.53-.09,1.06-.27.74-.24.44.32,1.17-.19,0,0,.13-.72-1.14-.53ZM20.36,19.83c-2.56.61-10.87-7.82-10-10,1.13-.5,3.86,1.34,4.44,2.65l-1.15.13c-.07.55.02,1.43.38,1.88.64-.29.45-.54.24-1.26l1.84-.03c-.25.68-.86,1.06-.39,1.69.65-.24.33-.52.93-1.05.45.37.59.77,1.2,1.05-.6.56-1.88.34-1.9,1.74,1.7-.17-.47-.45,2.58-.94.46.91,2.23,2.67,1.84,4.14Z"/><path class="cls-2" d="M.11,30.23c.4.02,5.8-2.55,6.36-3.01-.82-2.71-1.12-1.34-1.99-6.64l-3.54,7.11c-.19.4-.37.79-.59,1.22-.22.42-.36.58-.35.93.01.35-.02.18.11.39H.11Z"/><path class="cls-2" d="M6.18,7.2c.73,0,.98-.2,1.34-.55,1.08-1.05.64-3.49-1.67-3.36-2.41.13-2.38,3.91.33,3.91h0Z"/><path class="cls-2" d="M22.18,3.52c1.33,2.41,3.92.18,2.66-1.34-.67-.81-1.66-.81-2.29-.12-.46.5-.37.59-.37,1.45h0Z"/><path class="cls-2" d="M28.61,13.29c-1.93.78-.71,3.36,1.04,2.61.58-.25,1-1.04.73-1.77-.23-.6-.94-1.17-1.77-.84h0Z"/><path class="cls-2" d="M18.43,3.31c-1.8.92-.41,3.27,1.19,2.55,1.54-.7.56-3.45-1.19-2.55h0Z"/><path class="cls-2" d="M22.34,6.66c-.19.2-.8.99-.97,1.09-.67.4-1.37-.14-1.85.51.27.44-.15.3.71.35.02,0,1.07-.1,1.1-.11.49-.13.86-.72,1.13-1.11,1.53.18,1.15.58,2.46-.19,1.05-.62,1.04.55,2.09.31.19-.84-1.58-1.31-1.86-1.2-.39.15-.74.57-1.18.63-.38.05-1.21-.21-1.63-.27h0Z"/><path class="cls-2" d="M11.74,1.23c.03.94.12.24.72.91.52.58.05.54.43,1.23,1.08,0,.2-.15.91-.75.53-.45.73.04,1.32-.45-.13-1.01-.3-.16-.84-.87-.44-.57.1-.71-.47-1.31-.79.17-.26.2-.76.73-.61.63-.59.07-1.3.5h0Z"/><path class="cls-2" d="M22.2,26.56c.72.43.56-.14,1.31.32.72.44.03.64.97.64.38-.69-.13-.58.29-1.32.4-.69.55,0,.71-1.02-.63-.21-.77.12-1.36-.22-.68-.4.04-.6-.95-.68-.47.72.13.52-.32,1.3-.41.71-.6.06-.66.97h0Z"/><path class="cls-2" d="M4.85,4.61c-.03,1.08-.1,1.95,1.87,1.88.38-.53,1.13-1.25.26-2.13-.88-.89-1.6-.14-2.13.25h0Z"/><path class="cls-2" d="M10.94,5.3c.12,1.01.74.29,1.54,1.23.84.99.07,1.74.56,2.39.11-.03.62.27.58-1.16-.05-1.88-2.05-2.99-2.68-2.47h0Z"/><path class="cls-2" d="M21.61,18.23c.45.37,2.05.17,2.74,1.6.28.57,0,.56.58.78.69-.75-.37-1.77-.95-2.21-.34-.25-2.35-1.26-2.38-.17h0Z"/><path class="cls-2" d="M26.11,16.54c-.58-.44-.49-.48-1.33-.41-.5.53-.92,1.46-.02,1.83,1.12.46,1.47-.46,1.35-1.42h0Z"/><path class="cls-2" d="M23.83,9.22c-1.07.83.16,2.23,1.16,1.51.98-.7-.03-2.39-1.16-1.51h0Z"/><path class="cls-2" d="M4.25,11.5c.31-.31.7-.59.54-1.19-.13-.49-.59-.81-1.17-.69-.93.19-1.34,1.96.63,1.89h0Z"/><path class="cls-2" d="M16.85,24.95l-.91-.02c-2.08,2.52,2.96,2.6.91.02h0Z"/><path class="cls-2" d="M27.44,9.86c-.37.2-.33-.07-.48.57-.22.95.75,1.48,1.43,1.09,1.03-.61.24-2.28-.95-1.65h0Z"/><path class="cls-2" d="M23.18,2.38c-.16.26-.46.53-.23,1.03.16.34.6.61,1.08.33.65-.37.63-1.61-.86-1.36h0Z"/><path class="cls-2" d="M19.67,4.24c-.14-.13-.24-.21-.41-.36-2.69-.02.78,3.01.41.36h0Z"/><path class="cls-2" d="M28.47,15.06c.88.55,1.67-.05,1.19-.84-.37-.61-1.59-.47-1.19.84h0Z"/></svg>