<?xml version="1.0" encoding="UTF-8"?><svg id="Capa_1" xmlns="http://www.w3.org/2000/svg" viewBox="0 0 78.11 13.4"><defs><style>.cls-1{fill:#000;fill-rule:evenodd;stroke-width:0px;}</style></defs><path class="cls-1" d="M3.89,4.97c-1.4.21-2.23.39-3.14,1.11-1.65,1.31-.62,4.54,3.25,2.21.51-.31.85-.57,1.26-.91.47-.39.63-.7,1.06-1.1.99.32,1.81.79,3.28,1.21.58.17,1.17.33,1.79.47.4.09,1.6.24,1.89.39-.25.14-4.17,1.2-3.73,3.77.11.64.67,1.15,1.35,1.25,1.78.25,3.81-1.75,4.68-3.02.42-.61.51-1.09.85-1.74,1.29-.05,2.51-.01,3.81-.1,1.77-.12,3-.01,2.68-1.05-.55-.24-2.27.09-3.1.14-1.15.07-2.33.1-3.5.07-.3-1.32-1.75-4.09-3.05-4.72-1.26-.61-3.1.32-2.01,2.96.23.56.53.83.75,1.22-2.05-.23-4.25-1.41-5.38-1.7-.07-1.8-.92-5.1-2.57-5.4-1.88-.34-2.67,2.51-.18,4.93h0Z"/><path class="cls-1" d="M68.24,7.57c.22-.1.43-.38.63-.58.45-.44.47-.38.55-.73-1.02.17-2.21.81-3.32.87.16-.35.48-.62.71-1.16,1.06-2.55-.55-3.66-1.98-3.02-1.05.47-2.75,3.15-3.05,4.73-1.18.02-2.33,0-3.5-.07-.82-.04-2.53-.39-3.1-.14-.21.79.16.8.88.89,2.27.28,3.64.13,5.62.28.46.83.76,2.02,2,3.09.71.61,1.92,1.84,3.45,1.67,1.76-.2,2.21-2.72-.5-4.27-.94-.54-1.52-.6-1.79-.76.22-.11,2.89-.64,3.42-.79h0Z"/><path class="cls-1" d="M69.41,6.26c-.08.35-.1.29-.55.73-.2.19-.41.48-.63.58,1.47-.45,2.57-.97,3.55-1.29.7.7.91,1.21,2.26,1.97,4.06,2.3,4.88-.85,3.36-2.15-.76-.65-1.89-1.01-3.19-1.14.53-.66,1.25-1.11,1.49-2.55.22-1.28-.22-2.56-1.56-2.42-1.8.2-2.66,3.68-2.69,5.44l-2.05.81h0Z"/><path class="cls-1" d="M35.59,8.16c.08.69,1.21,1.89,1.6,2.36.2.24.19.25.45.5,1.25,1.19,1.22,2.78,3.55-.66.53-.78,1.09-1.6,1.5-2.55l-.95-.9c-.33-.41-.37-.29-.66-.64-.09-.12-.14-.19-.28-.31-.42-.36-.32-.19-.64-.74-.35.19-.67.88-.91,1.22-.51-.53-.46-1.04-.79-1.23-.06.28-.52.63-.89,1.02-.08.08-.16.15-.19.17-.14.13-.22.19-.34.33l-1.46,1.43h0ZM35.59,8.16l1.46-1.43c.12-.14.2-.2.34-.33.03-.03.11-.09.19-.17.37-.39.83-.74.89-1.02-.08-.63-1.44-2.89-2.98-1.15-1.04,1.18-.53,3.5.1,4.1h0ZM40.17,5.22c.32.54.22.38.64.74.14.12.18.19.28.31.29.35.33.24.66.64l.95.9c.17-.6.42-.92.5-1.7.11-1.12-.45-3.13-1.96-2.11-.32.22-1.06.84-1.07,1.21h0ZM49.73,6.63h0Z"/><path class="cls-1" d="M25.88,7.88c.06.5.86,1.35,1.14,1.68.14.17.13.17.32.36.89.85.87,1.98,2.53-.47.38-.56.78-1.14,1.07-1.82l-.68-.64c-.23-.29-.26-.21-.47-.46-.07-.08-.1-.14-.2-.22-.3-.26-.23-.14-.45-.53-.25.14-.48.62-.65.87-.36-.38-.33-.74-.56-.88-.04.2-.37.45-.64.73-.06.06-.11.11-.13.12-.1.09-.16.14-.24.23l-1.04,1.02h0ZM25.88,7.88l1.04-1.02c.09-.1.14-.15.24-.23.02-.02.08-.07.13-.12.27-.28.59-.53.64-.73-.05-.45-1.03-2.06-2.13-.82-.74.84-.38,2.5.07,2.93h0ZM29.15,5.78c.23.39.16.27.45.53.1.08.13.14.2.22.21.25.23.17.47.46l.68.64c.12-.43.3-.65.35-1.21.08-.8-.32-2.23-1.39-1.5-.23.16-.76.6-.76.86h0ZM35.97,6.79h0Z"/><path class="cls-1" d="M47.84,7.88c.06.5.86,1.35,1.14,1.68.14.17.13.17.32.36.89.85.87,1.98,2.53-.47.38-.56.78-1.14,1.07-1.82l-.68-.64c-.23-.29-.26-.21-.47-.46-.07-.08-.1-.14-.2-.22-.3-.26-.23-.14-.45-.53-.25.14-.48.62-.65.87-.36-.38-.33-.74-.56-.88-.04.2-.37.45-.64.73-.06.06-.11.11-.13.12-.1.09-.16.14-.24.23l-1.04,1.02h0ZM47.84,7.88l1.04-1.02c.09-.1.14-.15.24-.23.02-.02.08-.07.13-.12.27-.28.59-.53.64-.73-.05-.45-1.03-2.06-2.13-.82-.74.84-.38,2.5.07,2.93h0ZM51.11,5.78c.23.39.16.27.45.53.1.08.13.14.2.22.21.25.23.17.47.46l.68.64c.12-.43.3-.65.35-1.21.08-.8-.32-2.23-1.39-1.5-.23.16-.76.6-.76.86h0ZM57.93,6.79h0Z"/><path class="cls-1" d="M15.04,9.08c-1.14.02-2.17.36-2.99.85-.53.31-2.22,1.32-1.4,2.24.83.94,4.04-1.33,4.39-3.09h0Z"/><path class="cls-1" d="M63.07,9.07c.11.74,1.09,1.87,1.59,2.26,2.86,2.26,4.38.32,1.46-1.38-.9-.53-1.81-.82-3.05-.89h0Z"/><path class="cls-1" d="M62.93,7.6c1.46-.06,1.75-.38,2.45-1.15,1.43-1.57.87-3.56-.6-2.42-.82.63-1.65,2.6-1.84,3.57h0Z"/><path class="cls-1" d="M15.17,7.6c-.12-.67-.71-2.03-1.02-2.57-.24-.41-1.37-1.96-2.12-1.09-.52.6.38,2.14.69,2.51.67.78,1.03,1.05,2.45,1.14h0Z"/><path class="cls-1" d="M72.92,5.97c.52,1.17,3.45,2.71,4.14,1.96.81-.87-1.67-2.28-4.14-1.96h0Z"/><path class="cls-1" d="M1.19,8.1c1.65.12,3.72-1.33,3.95-2.15-1.39-.09-2.98.1-3.97,1.06-.56.54-.28.64.02,1.1h0Z"/><path class="cls-1" d="M72.5,4.88c1.16-.15,3.02-2.74,2.13-3.61-1.15-1.13-2.05,2.38-2.13,3.61h0Z"/><path class="cls-1" d="M5.6,4.91c-.08-.89-.25-1.81-.56-2.53-1.11-2.6-2.61-.82-1.2,1.12.35.49,1.09,1.2,1.76,1.41h0Z"/></svg>