<?xml version="1.0" encoding="utf-8"?>
<!-- Generator: Adobe Illustrator 28.3.0, SVG Export Plug-In . SVG Version: 6.00 Build 0)  -->
<svg version="1.1" id="Capa_1" xmlns="http://www.w3.org/2000/svg" xmlns:xlink="http://www.w3.org/1999/xlink" x="0px" y="0px"
	 viewBox="0 0 266.6 128.8" style="enable-background:new 0 0 266.6 128.8;" xml:space="preserve">
<style type="text/css">
	.st0{fill-rule:evenodd;clip-rule:evenodd;fill:#FFFFFF;}
	.st1{fill:#FFFFFF;}
</style>
<path class="st0" d="M125.3,72.6c0.4-0.3,1.6-1.8,3.3-3.1c3.5-2.8,8-5.5,9.1-10.1c0.9-4.2-1.3-7.4-4.1-8.5c-5-2.1-7.2,2.5-8.3,3.5
	c-0.4-0.4-0.9-1.2-1.3-1.7c-0.4-0.5-1.2-1.1-1.8-1.5c-6.4-3.9-15.5,6.9-3.8,15.5l5.3,4.3C124.2,71.5,124.8,72.2,125.3,72.6
	L125.3,72.6L125.3,72.6z"/>
<path class="st1" d="M79,24.3H20.9c-0.6,0-1-0.5-1-1s0.5-1,1-1H79c0.6,0,1,0.5,1,1S79.6,24.3,79,24.3z"/>
<path class="st1" d="M246.3,24.3h-57.9c-0.6,0-1-0.5-1-1s0.5-1,1-1h57.9c0.6,0,1,0.5,1,1S246.9,24.3,246.3,24.3z"/>
<path class="st0" d="M58.5,98.8c-2.7,0.4-4.3,0.8-6.1,2.2c-3.2,2.6-1.2,8.9,6.3,4.3c1-0.6,1.6-1.1,2.4-1.8c0.9-0.8,1.2-1.4,2.1-2.2
	c1.9,0.6,3.5,1.5,6.4,2.4c1.1,0.3,2.3,0.6,3.5,0.9c0.8,0.2,3.1,0.5,3.7,0.8c-0.5,0.3-8.1,2.3-7.3,7.4c0.2,1.3,1.3,2.2,2.6,2.4
	c3.5,0.5,7.4-3.4,9.1-5.9c0.8-1.2,1-2.1,1.6-3.4c2.5-0.1,4.9,0,7.4-0.2c3.4-0.2,5.8,0,5.2-2.1c-1.1-0.5-4.4,0.2-6,0.3
	c-2.2,0.1-4.5,0.2-6.8,0.1c-0.6-2.6-3.4-8-5.9-9.2c-2.4-1.2-6,0.6-3.9,5.8c0.4,1.1,1,1.6,1.5,2.4c-4-0.4-8.3-2.8-10.5-3.3
	c-0.1-3.5-1.8-10-5-10.6C55.2,88.5,53.7,94.1,58.5,98.8L58.5,98.8L58.5,98.8L58.5,98.8z"/>
<path class="st0" d="M183.5,103.9c0.4-0.2,0.8-0.7,1.2-1.1c0.9-0.9,0.9-0.7,1.1-1.4c-2,0.3-4.3,1.6-6.5,1.7c0.3-0.7,0.9-1.2,1.4-2.3
	c2.1-5-1.1-7.2-3.8-5.9c-2,0.9-5.3,6.2-5.9,9.2c-2.3,0-4.5,0-6.8-0.1c-1.6-0.1-4.9-0.8-6-0.3c-0.4,1.5,0.3,1.6,1.7,1.7
	c4.4,0.5,7.1,0.3,10.9,0.5c0.9,1.6,1.5,3.9,3.9,6c1.4,1.2,3.7,3.6,6.7,3.3c3.4-0.4,4.3-5.3-1-8.4c-1.8-1.1-3-1.2-3.5-1.5
	C177.4,105.3,182.6,104.2,183.5,103.9L183.5,103.9L183.5,103.9L183.5,103.9z"/>
<path class="st0" d="M185.8,101.4c-0.2,0.7-0.2,0.6-1.1,1.4c-0.4,0.4-0.8,0.9-1.2,1.1c2.9-0.9,5-1.9,6.9-2.5
	c1.4,1.4,1.8,2.4,4.4,3.9c7.9,4.5,9.5-1.7,6.5-4.2c-1.5-1.3-3.7-2-6.2-2.2c1-1.3,2.4-2.2,2.9-5c0.4-2.5-0.4-5-3-4.7
	c-3.5,0.4-5.2,7.2-5.2,10.6L185.8,101.4L185.8,101.4L185.8,101.4L185.8,101.4z"/>
<path class="st0" d="M120.1,105.1c0.2,1.3,2.4,3.7,3.1,4.6c0.4,0.5,0.4,0.5,0.9,1c2.4,2.3,2.4,5.4,6.9-1.3c1-1.5,2.1-3.1,2.9-5
	l-1.8-1.8c-0.6-0.8-0.7-0.6-1.3-1.3c-0.2-0.2-0.3-0.4-0.5-0.6c-0.8-0.7-0.6-0.4-1.2-1.5c-0.7,0.4-1.3,1.7-1.8,2.4
	c-1-1-0.9-2-1.5-2.4c-0.1,0.5-1,1.2-1.7,2c-0.2,0.2-0.3,0.3-0.4,0.3c-0.3,0.3-0.4,0.4-0.7,0.6L120.1,105.1L120.1,105.1L120.1,105.1z
	 M120.1,105.1l2.8-2.8c0.2-0.3,0.4-0.4,0.7-0.6c0.1-0.1,0.2-0.2,0.4-0.3c0.7-0.8,1.6-1.5,1.7-2c-0.2-1.2-2.8-5.6-5.8-2.2
	C117.9,99.4,118.9,103.9,120.1,105.1L120.1,105.1L120.1,105.1z M129,99.3c0.6,1.1,0.4,0.7,1.2,1.5c0.3,0.2,0.4,0.4,0.5,0.6
	c0.6,0.7,0.6,0.5,1.3,1.3l1.8,1.8c0.3-1.2,0.8-1.8,1-3.3c0.2-2.2-0.9-6.1-3.8-4.1C130.5,97.4,129,98.6,129,99.3L129,99.3L129,99.3
	L129,99.3z M147.6,102.1L147.6,102.1z"/>
<path class="st0" d="M101.3,104.5c0.1,1,1.7,2.6,2.2,3.3c0.3,0.3,0.2,0.3,0.6,0.7c1.7,1.7,1.7,3.9,4.9-0.9c0.7-1.1,1.5-2.2,2.1-3.6
	l-1.3-1.3c-0.4-0.6-0.5-0.4-0.9-0.9c-0.1-0.2-0.2-0.3-0.4-0.4c-0.6-0.5-0.4-0.3-0.9-1c-0.5,0.3-0.9,1.2-1.3,1.7
	c-0.7-0.7-0.6-1.5-1.1-1.7c-0.1,0.4-0.7,0.9-1.2,1.4c-0.1,0.1-0.2,0.2-0.2,0.2c-0.2,0.2-0.3,0.3-0.5,0.4L101.3,104.5L101.3,104.5
	L101.3,104.5L101.3,104.5z M101.3,104.5l2-2c0.2-0.2,0.3-0.3,0.5-0.4c0,0,0.2-0.1,0.2-0.2c0.5-0.5,1.2-1,1.2-1.4
	c-0.1-0.9-2-4-4.1-1.6C99.7,100.5,100.4,103.7,101.3,104.5L101.3,104.5L101.3,104.5L101.3,104.5z M107.6,100.4
	c0.4,0.8,0.3,0.5,0.9,1c0.2,0.2,0.2,0.3,0.4,0.4c0.4,0.5,0.4,0.3,0.9,0.9l1.3,1.3c0.2-0.8,0.6-1.3,0.7-2.4c0.2-1.6-0.6-4.4-2.7-2.9
	C108.6,99.1,107.6,99.9,107.6,100.4L107.6,100.4L107.6,100.4z M120.9,102.4L120.9,102.4z"/>
<path class="st0" d="M143.9,104.5c0.1,1,1.7,2.6,2.2,3.3c0.3,0.3,0.2,0.3,0.6,0.7c1.7,1.7,1.7,3.9,4.9-0.9c0.7-1.1,1.5-2.2,2.1-3.6
	l-1.3-1.3c-0.4-0.6-0.5-0.4-0.9-0.9c-0.1-0.2-0.2-0.3-0.4-0.4c-0.6-0.5-0.4-0.3-0.9-1c-0.5,0.3-0.9,1.2-1.3,1.7
	c-0.7-0.7-0.6-1.5-1.1-1.7c-0.1,0.4-0.7,0.9-1.2,1.4c-0.1,0.1-0.2,0.2-0.2,0.2c-0.2,0.2-0.3,0.3-0.5,0.4L143.9,104.5L143.9,104.5
	L143.9,104.5L143.9,104.5z M143.9,104.5l2-2c0.2-0.2,0.3-0.3,0.5-0.4c0,0,0.2-0.1,0.2-0.2c0.5-0.5,1.2-1,1.2-1.4
	c-0.1-0.9-2-4-4.1-1.6C142.3,100.5,143,103.7,143.9,104.5L143.9,104.5C143.9,104.6,143.9,104.5,143.9,104.5z M150.3,100.4
	c0.4,0.8,0.3,0.5,0.9,1c0.2,0.2,0.2,0.3,0.4,0.4c0.4,0.5,0.4,0.3,0.9,0.9l1.3,1.3c0.2-0.8,0.6-1.3,0.7-2.4c0.2-1.6-0.6-4.4-2.7-2.9
	C151.3,99.1,150.3,99.9,150.3,100.4L150.3,100.4L150.3,100.4z M163.5,102.4L163.5,102.4z"/>
<path class="st0" d="M80.2,106.9c-2.2,0-4.2,0.7-5.8,1.7c-1,0.6-4.3,2.6-2.7,4.4C73.3,114.8,79.5,110.3,80.2,106.9
	C80.2,106.9,80.2,106.9,80.2,106.9z"/>
<path class="st0" d="M173.5,106.9c0.2,1.5,2.1,3.7,3.1,4.4c5.6,4.4,8.5,0.6,2.8-2.7C177.7,107.6,175.9,107,173.5,106.9L173.5,106.9
	L173.5,106.9L173.5,106.9z"/>
<path class="st0" d="M173.2,104c2.8-0.1,3.4-0.7,4.8-2.2c2.8-3.1,1.7-7-1.2-4.7C175.2,98.3,173.6,102.1,173.2,104L173.2,104
	L173.2,104z"/>
<path class="st0" d="M80.4,104c-0.2-1.3-1.4-4-2-5c-0.5-0.8-2.7-3.8-4.1-2.1c-1,1.2,0.7,4.2,1.3,4.9C77,103.3,77.7,103.8,80.4,104
	L80.4,104L80.4,104L80.4,104z"/>
<path class="st0" d="M192.6,100.8c1,2.3,6.7,5.3,8,3.8C202.3,102.9,197.4,100.2,192.6,100.8L192.6,100.8z"/>
<path class="st0" d="M53.3,105c3.2,0.2,7.2-2.6,7.7-4.2c-2.7-0.2-5.8,0.2-7.7,2.1C52.2,103.9,52.7,104.1,53.3,105L53.3,105L53.3,105
	z"/>
<path class="st0" d="M191.8,98.7c2.3-0.3,5.9-5.4,4.1-7.1C193.7,89.4,192,96.3,191.8,98.7L191.8,98.7z"/>
<path class="st0" d="M61.9,98.7c-0.2-1.7-0.5-3.5-1.1-4.9c-2.2-5.1-5.1-1.6-2.3,2.2C59.1,96.9,60.5,98.3,61.9,98.7L61.9,98.7z"/>
<g>
	<path class="st1" d="M9.3,45.4c-0.1,0.8-0.2,1.5-0.2,2.3c0,0.8,0,1.5,0.1,2.3c0.1,0.7,0.3,1.4,0.6,2.1c0.3,0.7,0.7,1.3,1.3,1.9
		c0.1-0.2,0.2-0.4,0.3-0.7c0.1-0.2,0.2-0.4,0.4-0.7c1.1-1.9,2.4-3.6,3.9-5.2c1.5-1.6,3.2-2.9,5.1-4c0.9-0.5,1.9-0.9,3-1.2
		c1.1-0.4,2.2-0.6,3.4-0.7c1.2-0.1,2.3-0.1,3.4,0.1c1.1,0.2,2.1,0.6,3.1,1.3c0.9,0.6,1.5,1.4,1.9,2.3c0.4,0.9,0.5,1.8,0.5,2.8
		c0,1-0.2,1.9-0.6,2.9c-0.4,1-0.8,1.8-1.4,2.6c-1.3,1.7-2.9,3-4.9,3.9c-1.9,0.9-3.9,1.5-5.9,1.9c-1.5,0.3-3,0.5-4.5,0.5
		c-1.6,0-3.1-0.1-4.5-0.5L13.5,61c-0.4,0.8-0.7,1.7-1,2.6c-0.3,0.9-0.5,1.9-0.7,2.8c-0.2,1-0.2,1.9-0.1,2.8c0.1,0.9,0.3,1.8,0.7,2.7
		c0.3,0.5,0.6,1,1,1.4c0.4,0.4,0.8,0.7,1.3,1c0.9,0.5,1.9,0.6,3,0.4c1.1-0.2,2-0.5,2.9-1.1c0.8-0.5,1.6-1.1,2.3-1.8
		c0.7-0.7,1.2-1.5,1.6-2.4c0.4-0.9,0.7-1.8,0.8-2.8c0.1-1,0-1.9-0.3-2.9c-0.1-0.2,0-0.3,0.2-0.2c0.2,0.1,0.3,0.1,0.4,0.2
		c1.3,0.8,2.1,2,2.4,3.5c0.2,1.1,0.1,2.3-0.4,3.4c-0.4,1.1-1.1,2.1-1.9,2.9c-0.7,0.7-1.6,1.4-2.6,1.9c-1,0.5-2,0.8-3.1,1
		c-1.1,0.2-2.2,0.2-3.3,0.1c-1.1-0.1-2.1-0.5-3-0.9c-0.8-0.4-1.5-1-2.1-1.6c-0.6-0.6-1.1-1.4-1.6-2.1c-0.4-0.8-0.8-1.6-1.1-2.4
		c-0.3-0.9-0.5-1.7-0.6-2.6c-0.3-1.7-0.2-3.4,0.1-5c0.3-1.7,0.8-3.3,1.4-4.9c-0.8-0.6-1.5-1.4-2.1-2.3c-0.6-0.9-1.1-1.8-1.4-2.8
		c-0.3-1-0.3-2-0.2-3c0.2-1,0.7-1.9,1.5-2.7c0,0,0.1-0.1,0.3-0.3c0.2-0.1,0.4-0.3,0.6-0.4c0.2-0.1,0.4-0.2,0.5-0.2
		C9.3,45.1,9.3,45.2,9.3,45.4z M25.8,45.5c-2.2,1.2-4.1,2.8-5.7,4.7c-1.6,1.9-3.1,4-4.5,6.3c1.1,0.4,2.3,0.6,3.4,0.7
		c1.2,0.1,2.3,0.1,3.4,0.1c1.5-0.1,3.1-0.4,4.6-0.8c1.6-0.5,3-1.2,4.2-2.1c0.7-0.5,1.3-1.2,1.9-1.8c0.5-0.7,1-1.4,1.3-2.3
		c0.3-0.8,0.4-1.7,0.4-2.6c0-0.9-0.3-1.8-0.8-2.5c-0.5-0.6-1.1-1-1.8-1.2c-0.7-0.2-1.5-0.2-2.2,0c-0.8,0.1-1.5,0.3-2.3,0.7
		C26.9,44.9,26.3,45.2,25.8,45.5z"/>
	<path class="st1" d="M54.2,66c0.1-0.3,0.2-0.4,0.4-0.5c0.2-0.1,0.3-0.1,0.5,0c0.1,0,0.2,0.2,0.3,0.3c0.1,0.2,0.1,0.4,0,0.7
		c-0.9,2.4-2.1,4.4-3.7,5.8c-1.6,1.5-3.2,2.2-4.9,2.2c-1.2,0-2.2-0.3-2.8-0.9c-0.7-0.6-1-1.5-1.1-2.8c-0.7,0.9-1.6,1.8-2.6,2.6
		c-1,0.8-2.2,1.2-3.6,1.2c-1.4,0-2.5-0.5-3.3-1.5c-0.8-1-1.2-2.2-1.4-3.6c-0.1-1.5,0.1-3,0.6-4.7c0.5-1.7,1.3-3.3,2.5-4.7
		c1.2-1.5,2.6-2.7,4.4-3.6c1.8-1,4-1.5,6.5-1.5c1.7,0,3.1,0.2,4.1,0.7c1,0.5,1.8,1.2,2.4,2.2c-0.6,1.9-1.2,3.7-1.8,5.2
		c-0.2,0.7-0.4,1.3-0.7,2c-0.2,0.7-0.4,1.3-0.6,1.8c-0.2,0.5-0.4,1-0.5,1.4c-0.1,0.4-0.2,0.7-0.3,0.8c-0.4,1.2-0.6,2-0.5,2.5
		c0.1,0.5,0.4,0.8,0.8,0.8c0.3,0,0.6-0.1,1-0.3c0.4-0.2,0.9-0.6,1.4-1c0.5-0.5,1-1.1,1.5-1.9C53.3,68.1,53.7,67.2,54.2,66z M46.8,57
		c-0.1-0.2-0.2-0.3-0.4-0.5c-0.2-0.2-0.6-0.3-1-0.3c-0.9,0-1.8,0.4-2.7,1.2c-0.9,0.8-1.6,1.8-2.3,3c-0.7,1.2-1.3,2.5-1.8,3.9
		c-0.5,1.4-0.8,2.7-1,3.9c-0.2,1.2-0.2,2.2-0.1,3c0.1,0.8,0.5,1.2,1.1,1.2c0.4,0,0.8-0.1,1.1-0.3c0.4-0.2,0.7-0.5,1.1-0.9
		c0.3-0.4,0.7-0.8,1-1.3c0.3-0.5,0.6-1,0.9-1.5c0.6-1.2,1.2-2.6,1.8-4.1L46.8,57z"/>
	<path class="st1" d="M68.9,66c0.1-0.3,0.2-0.4,0.4-0.5c0.2-0.1,0.3-0.1,0.5,0s0.2,0.2,0.3,0.3c0.1,0.2,0,0.4,0,0.7
		c-0.9,2.4-2.1,4.4-3.7,5.8c-1.6,1.5-3.2,2.2-4.9,2.2c-0.9,0-1.6-0.2-2.2-0.5c-0.6-0.3-1.1-0.8-1.3-1.5c-0.3-0.7-0.4-1.5-0.3-2.6
		c0.1-1,0.3-2.3,0.8-3.7l2.1-6.1c0.2-0.5,0.3-1.1,0.3-1.7c0-0.6-0.1-1.1-0.4-1.5c-0.1-0.2-0.3-0.4-0.4-0.6c-0.1-0.2-0.3-0.3-0.4-0.5
		L59,55.2c-0.2,0.6-0.4,1.3-0.7,2.3s-0.6,1.9-0.9,3c-0.3,1.1-0.7,2.1-1.1,3.2c-0.4,1.1-0.7,2-1,2.8c-0.2,0.4-0.3,0.7-0.5,0.8
		c-0.2,0.1-0.4,0.2-0.5,0.1c-0.1-0.1-0.2-0.2-0.3-0.5c0-0.2,0-0.5,0.1-0.9c0.8-2.1,1.4-4,1.9-5.6c0.5-1.6,1-3,1.3-4.1
		c0.4-1.3,0.6-2.4,0.9-3.4c0.9,0.6,1.7,1.2,2.5,1.8c0.7,0.5,1.4,1.1,2.1,1.7c0.7,0.6,1.3,1.2,1.7,1.8c0.6,0.8,0.9,1.6,1,2.4
		c0.1,0.7-0.1,1.6-0.4,2.6l-2,5.8c-0.4,1.2-0.6,2-0.5,2.5c0.1,0.5,0.4,0.8,0.8,0.8c0.3,0,0.6-0.1,1-0.3c0.4-0.2,0.9-0.6,1.3-1
		c0.5-0.5,1-1.1,1.5-1.9C67.9,68.1,68.4,67.2,68.9,66z"/>
	<path class="st1" d="M82.8,42.4c-1.6,4.8-3.1,9.1-4.4,12.9c-0.5,1.6-1.1,3.2-1.6,4.8c-0.5,1.6-1,3-1.5,4.3
		c-0.4,1.3-0.8,2.3-1.1,3.1c-0.3,0.8-0.4,1.3-0.5,1.4c-0.4,1.2-0.6,2-0.5,2.5c0.1,0.5,0.4,0.8,0.8,0.8c0.3,0,0.6-0.1,1-0.3
		c0.4-0.2,0.9-0.6,1.4-1c0.5-0.5,1-1.1,1.5-1.9c0.5-0.8,1-1.8,1.4-2.9c0.1-0.3,0.2-0.4,0.4-0.5c0.2-0.1,0.3-0.1,0.5,0
		s0.2,0.2,0.3,0.3c0.1,0.2,0,0.4,0,0.7c-0.9,2.4-2.1,4.4-3.7,5.8c-1.5,1.5-3.2,2.2-5,2.2c-0.9,0-1.6-0.2-2.2-0.5
		c-0.6-0.3-1.1-0.8-1.3-1.5c-0.3-0.7-0.4-1.5-0.3-2.6c0.1-1,0.3-2.3,0.8-3.7L75.4,47c0.5-1.6,1.3-2.8,2.2-3.5c0.9-0.7,2.3-1,4-1
		H82.8z"/>
	<path class="st1" d="M101.4,66c0.1-0.3,0.2-0.4,0.4-0.5c0.2-0.1,0.3-0.1,0.5,0c0.1,0,0.2,0.2,0.3,0.3c0.1,0.2,0.1,0.4,0,0.7
		c-0.9,2.4-2.1,4.4-3.7,5.8c-1.6,1.5-3.2,2.2-4.9,2.2c-1.2,0-2.2-0.3-2.8-0.9c-0.7-0.6-1-1.5-1.1-2.8c-0.7,0.9-1.6,1.8-2.6,2.6
		c-1,0.8-2.2,1.2-3.6,1.2c-1.4,0-2.5-0.5-3.3-1.5c-0.8-1-1.2-2.2-1.4-3.6c-0.1-1.5,0.1-3,0.6-4.7c0.5-1.7,1.3-3.3,2.5-4.7
		c1.2-1.5,2.6-2.7,4.4-3.6c1.8-1,4-1.5,6.5-1.5c1.7,0,3.1,0.2,4.1,0.7c1,0.5,1.8,1.2,2.4,2.2c-0.6,1.9-1.2,3.7-1.8,5.2
		c-0.2,0.7-0.4,1.3-0.7,2c-0.2,0.7-0.4,1.3-0.6,1.8c-0.2,0.5-0.4,1-0.5,1.4c-0.1,0.4-0.2,0.7-0.3,0.8c-0.4,1.2-0.6,2-0.5,2.5
		c0.1,0.5,0.4,0.8,0.8,0.8c0.3,0,0.6-0.1,1-0.3c0.4-0.2,0.9-0.6,1.4-1c0.5-0.5,1-1.1,1.5-1.9C100.5,68.1,101,67.2,101.4,66z
		 M94.1,57c-0.1-0.2-0.2-0.3-0.4-0.5c-0.2-0.2-0.6-0.3-1-0.3c-0.9,0-1.8,0.4-2.7,1.2c-0.9,0.8-1.6,1.8-2.3,3
		c-0.7,1.2-1.3,2.5-1.8,3.9c-0.5,1.4-0.8,2.7-1,3.9c-0.2,1.2-0.2,2.2-0.1,3c0.1,0.8,0.5,1.2,1.1,1.2c0.4,0,0.8-0.1,1.1-0.3
		c0.4-0.2,0.7-0.5,1.1-0.9c0.3-0.4,0.7-0.8,1-1.3c0.3-0.5,0.6-1,0.9-1.5c0.6-1.2,1.2-2.6,1.8-4.1L94.1,57z"/>
</g>
<g>
	<path class="st1" d="M149.2,60c0.4-0.8,0.8-1.7,1.4-2.5c0.6-0.8,1.3-1.6,2-2.3c0-1.3,0.2-2.5,0.7-3.7c0.5-1.2,1.1-2.3,1.9-3.3
		c1-1.3,2.1-2.4,3.4-3.4c1.3-1,2.7-1.8,4.1-2.5c1.5-0.7,3-1.2,4.6-1.6c1.6-0.4,3.2-0.6,4.7-0.7c1.6-0.1,3.3,0.1,5.1,0.4
		s3.4,0.9,4.8,1.8c1.5,0.8,2.7,1.9,3.7,3.3c1,1.4,1.6,3,1.8,4.9c0.1,0.8,0,1.7-0.2,2.5c-0.2,0.8-0.4,1.6-0.8,2.4
		c-0.4,0.8-0.8,1.5-1.3,2.1c-0.5,0.7-1.1,1.2-1.7,1.7c-1.3,1.1-2.9,1.9-4.5,2.5c-1.7,0.6-3.4,0.9-5.1,0.8c-0.8,0-1.6-0.2-2.4-0.4
		c-0.8-0.2-1.5-0.6-2.1-1c-0.7,1.6-1.6,3.2-2.5,4.8c-0.9,1.6-2,3.1-3.2,4.5c-0.7,0.8-1.5,1.6-2.5,2.3c-1,0.7-2,1.3-3.1,1.7
		c-1.1,0.4-2.3,0.5-3.4,0.5c-1.2-0.1-2.3-0.5-3.4-1.2c-1.1-0.7-1.9-1.6-2.4-2.7c-0.5-1.1-0.8-2.3-0.9-3.6c-0.1-1.3,0-2.5,0.2-3.8
		C148.5,62.2,148.8,61,149.2,60z M178.8,46c-1,0.5-1.8,1.2-2.5,2c-0.7,0.8-1.3,1.7-1.9,2.6c-0.6,1.1-1.2,2.2-1.7,3.3
		c-0.5,1.1-1,2.3-1.6,3.4c-0.2,0.4-0.3,0.8-0.5,1.2c-0.2,0.4-0.4,0.8-0.6,1.2c0.4,0.3,0.7,0.5,1.2,0.6c0.4,0.1,0.9,0.2,1.3,0.3
		c1.3,0.2,2.6,0,3.8-0.4c1.2-0.4,2.2-1.1,3-2.2c0.8-1,1.4-2.1,1.8-3.3c0.4-1.2,0.6-2.5,0.7-3.7c0.1-1.4-0.1-2.6-0.4-3.8
		c-0.4-1.2-1-2.2-2.1-3.1c-1-0.9-2.1-1.5-3.3-1.8c-1.2-0.3-2.5-0.5-3.7-0.6c-2.3-0.1-4.6,0.3-6.8,1.1s-4.1,2.1-5.7,3.8
		c-0.8,0.8-1.5,1.8-2.1,2.9c-0.6,1.1-1,2.2-1.3,3.4c1.2-0.4,2.4-0.5,3.6-0.3c0.5,0.1,1,0.2,1.5,0.4s0.9,0.5,1.3,0.8
		c0.1,0.1,0.2,0.2,0.4,0.4c0.2,0.2,0.3,0.3,0.3,0.5c0,0.2-0.1,0.3-0.3,0.2c-0.2-0.1-0.5-0.1-0.8-0.2c-1-0.1-2.1,0-3.1,0.2
		c-1.1,0.2-2.1,0.6-3,1.1c0.1,1.1,0.3,2.2,0.7,3.2c0.4,1,1.1,1.9,2,2.7c0.1,0.1,0.2,0.2,0.1,0.2c-0.1,0.1-0.2,0.1-0.3,0.1
		c-0.1,0-0.3,0.1-0.4,0.1c-0.1,0-0.2,0-0.3,0c-0.4,0-0.9-0.1-1.3-0.2c-0.4-0.1-0.8-0.3-1.1-0.5c-0.6-0.4-1.1-0.8-1.5-1.4
		c-0.4-0.6-0.8-1.2-1-1.9c-1.3,1.4-2.2,2.9-2.8,4.7c-0.6,1.8-0.8,3.6-0.4,5.4c0.3,1.1,0.8,2.1,1.5,2.8c0.8,0.8,1.8,1.1,3,1.1
		c1.2,0,2.3-0.3,3.1-1.1s1.6-1.7,2.2-2.7c0.7-1.1,1.3-2.3,1.8-3.5c0.5-1.2,1.1-2.4,1.5-3.7c0.5-1.2,1-2.5,1.5-3.7
		c0.5-1.2,1.1-2.4,1.7-3.6c0.5-1,1.1-2,1.7-3c0.6-1,1.4-2,2.2-2.9c0.8-0.9,1.7-1.6,2.7-2.2c1-0.6,2.1-0.9,3.3-1c0.4,0,0.9,0,1.4,0
		c0.5,0.1,0.9,0.2,1.3,0.4c0.1,0.1,0.1,0.1,0.1,0.2C179,45.9,178.9,46,178.8,46z"/>
	<path class="st1" d="M207.8,64.1c0.1-0.3,0.2-0.4,0.4-0.5c0.2-0.1,0.3-0.1,0.5,0c0.1,0,0.2,0.2,0.3,0.3c0.1,0.2,0.1,0.4,0,0.7
		c-0.9,2.4-2.1,4.4-3.7,5.8c-1.6,1.5-3.2,2.2-4.9,2.2c-1.2,0-2.2-0.3-2.8-0.9c-0.7-0.6-1-1.5-1.1-2.8c-0.7,0.9-1.6,1.8-2.6,2.6
		c-1,0.8-2.2,1.2-3.6,1.2c-1.4,0-2.5-0.5-3.3-1.5c-0.8-1-1.2-2.2-1.4-3.6c-0.1-1.5,0.1-3,0.6-4.7c0.5-1.7,1.3-3.3,2.5-4.7
		c1.2-1.5,2.6-2.7,4.4-3.6c1.8-1,4-1.5,6.5-1.5c1.7,0,3.1,0.2,4.1,0.7c1,0.5,1.8,1.2,2.4,2.2c-0.6,1.9-1.2,3.7-1.8,5.2
		c-0.2,0.7-0.4,1.3-0.7,2c-0.2,0.7-0.4,1.3-0.6,1.8c-0.2,0.5-0.4,1-0.5,1.4c-0.1,0.4-0.2,0.7-0.3,0.8c-0.4,1.2-0.6,2-0.5,2.5
		c0.1,0.5,0.4,0.8,0.8,0.8c0.3,0,0.6-0.1,1-0.3c0.4-0.2,0.9-0.6,1.4-1c0.5-0.5,1-1.1,1.5-1.9C206.9,66.2,207.3,65.3,207.8,64.1z
		 M200.4,55.1c-0.1-0.2-0.2-0.3-0.4-0.5c-0.2-0.2-0.6-0.3-1-0.3c-0.9,0-1.8,0.4-2.7,1.2c-0.9,0.8-1.6,1.8-2.3,3
		c-0.7,1.2-1.3,2.5-1.8,3.9c-0.5,1.4-0.8,2.7-1,3.9c-0.2,1.2-0.2,2.2-0.1,3c0.1,0.8,0.5,1.2,1.1,1.2c0.4,0,0.8-0.1,1.1-0.3
		c0.4-0.2,0.7-0.5,1.1-0.9c0.3-0.4,0.7-0.8,1-1.3c0.3-0.5,0.6-1,0.9-1.5c0.6-1.2,1.2-2.6,1.8-4.1L200.4,55.1z"/>
	<path class="st1" d="M221,52.9c1.1,0.1,2,0.4,2.7,0.9c0.7,0.6,1.2,1.3,1.5,2.2s0.4,2,0.3,3.2c-0.1,1.2-0.5,2.5-1.1,3.9
		c-0.8,1.9-1.8,3.5-2.9,4.7c-1.1,1.2-2.3,2.2-3.4,2.9c-1.2,0.7-2.2,1.2-3.3,1.4c-1,0.2-1.9,0.4-2.6,0.4c-0.6,0-1.3-0.1-1.9-0.3
		c-0.7-0.2-1.3-0.4-1.8-0.8c-0.5-0.3-1-0.8-1.4-1.2c-0.4-0.5-0.7-1-0.8-1.6l4.2-12.3c0.7-2.1,1.5-4.2,2.4-6.2c0.9-2,1.9-3.8,3-5.4
		c1.1-1.6,2.3-2.9,3.7-3.8c1.3-1,2.7-1.5,4.2-1.5c1.4,0,2.3,0.4,2.8,1.2c0.4,0.8,0.5,1.9,0.2,3.2c-0.3,1.3-1,2.7-2,4.3
		C223.7,49.8,222.5,51.4,221,52.9z M218.8,62.8c0.9-2.3,1.4-4.2,1.5-5.7c0-1.5-0.4-2.2-1.5-2.2c-0.5,0-1.1,0.3-1.8,1
		c-0.6,0.7-1.3,1.7-2,3c-0.7,1.3-1.5,2.9-2.2,4.8c-0.8,1.9-1.6,4-2.4,6.3c0.4,0.7,1,1,1.7,1c0.7,0,1.4-0.4,2.2-1
		c0.8-0.7,1.6-1.6,2.4-2.8C217.4,65.9,218.1,64.5,218.8,62.8z M223.2,40.8c-0.5,0-1.1,0.3-1.6,1c-0.6,0.7-1.2,1.6-1.8,2.9
		c-0.6,1.2-1.3,2.7-1.9,4.5s-1.4,3.7-2.1,5.9c-0.1,0.3-0.2,0.5-0.3,0.8c1-0.9,1.9-1.8,2.8-2.9c0.9-1.1,1.6-2.2,2.3-3.3
		c0.7-1.1,1.3-2.2,1.8-3.2c0.5-1.1,0.9-2,1.1-2.8c0.2-0.8,0.3-1.5,0.3-2C223.8,41,223.6,40.8,223.2,40.8z"/>
	<path class="st1" d="M240.8,40.5c-1.6,4.8-3.1,9.1-4.4,12.9c-0.5,1.6-1.1,3.2-1.6,4.8c-0.5,1.6-1,3-1.5,4.3
		c-0.4,1.3-0.8,2.3-1.1,3.1c-0.3,0.8-0.4,1.3-0.5,1.4c-0.4,1.2-0.6,2-0.5,2.5c0.1,0.5,0.4,0.8,0.8,0.8c0.3,0,0.6-0.1,1-0.3
		c0.4-0.2,0.9-0.6,1.4-1c0.5-0.5,1-1.1,1.5-1.9c0.5-0.8,1-1.8,1.4-2.9c0.1-0.3,0.2-0.4,0.4-0.5c0.2-0.1,0.3-0.1,0.5,0
		c0.1,0,0.2,0.2,0.3,0.3c0.1,0.2,0,0.4,0,0.7c-0.9,2.4-2.1,4.4-3.7,5.8c-1.5,1.5-3.2,2.2-5,2.2c-0.9,0-1.6-0.2-2.2-0.5
		c-0.6-0.3-1.1-0.8-1.3-1.5c-0.3-0.7-0.4-1.5-0.3-2.6c0.1-1,0.3-2.3,0.8-3.7l6.6-19.2c0.5-1.6,1.3-2.8,2.2-3.5c0.9-0.7,2.3-1,4-1
		H240.8z"/>
	<path class="st1" d="M250.6,52.8c2.1,0.2,3.6,0.8,4.7,1.9c1,1.1,1.7,2.4,1.8,3.9c0.2,1.5,0,3.2-0.6,4.9c-0.6,1.7-1.5,3.3-2.7,4.7
		c-1.2,1.4-2.6,2.6-4.4,3.5c-1.7,0.9-3.6,1.3-5.7,1.1c-2.1-0.1-3.6-0.7-4.6-1.8c-1-1.1-1.6-2.4-1.8-3.9c-0.2-1.5,0-3.2,0.6-4.9
		c0.6-1.7,1.5-3.3,2.6-4.7c1.2-1.4,2.6-2.6,4.3-3.5C246.7,53,248.6,52.6,250.6,52.8z M245.8,71.3c0.9-0.1,1.7-0.6,2.4-1.5
		c0.7-0.9,1.3-2,1.8-3.2c0.5-1.3,0.8-2.6,1.1-4.1c0.2-1.5,0.3-2.8,0.2-4.1c-0.1-1.2-0.3-2.3-0.8-3.1c-0.4-0.8-1.1-1.2-2-1.1
		c-0.9,0.1-1.7,0.5-2.4,1.4c-0.7,0.9-1.3,2-1.8,3.3c-0.5,1.3-0.8,2.7-1.1,4.1c-0.2,1.5-0.3,2.8-0.2,4.1c0.1,1.2,0.4,2.3,0.8,3.1
		C244.3,71,245,71.3,245.8,71.3z"/>
</g>
<g>
	<path class="st1" d="M88.7,25.8h3v-9.6h-2.4v-1.1c1.2-0.2,2-0.5,2.8-1h1.3v11.7H96v1.4h-7.3V25.8z"/>
	<path class="st1" d="M98.8,25.8h3v-9.6h-2.4v-1.1c1.2-0.2,2-0.5,2.8-1h1.3v11.7h2.7v1.4h-7.3V25.8z"/>
	<path class="st1" d="M113,12.7h1.2l-5.4,17.8h-1.2L113,12.7z"/>
	<path class="st1" d="M116,25.8h3v-9.6h-2.4v-1.1c1.2-0.2,2-0.5,2.8-1h1.3v11.7h2.7v1.4H116V25.8z"/>
	<path class="st1" d="M125.4,20.6c0-4.4,1.6-6.7,4.2-6.7c2.6,0,4.2,2.4,4.2,6.7c0,4.4-1.6,6.8-4.2,6.8C127,27.4,125.4,25,125.4,20.6
		z M132.1,20.6c0-3.8-1-5.4-2.5-5.4c-1.5,0-2.5,1.5-2.5,5.4c0,3.8,1,5.5,2.5,5.5C131.1,26.1,132.1,24.4,132.1,20.6z"/>
	<path class="st1" d="M140.3,12.7h1.2l-5.4,17.8h-1.2L140.3,12.7z"/>
	<path class="st1" d="M142.6,26.2c3.9-3.9,6.1-6.3,6.1-8.4c0-1.5-0.8-2.5-2.5-2.5c-1.1,0-2,0.7-2.8,1.6l-1-1c1.1-1.2,2.3-2,3.9-2
		c2.4,0,3.9,1.5,3.9,3.8c0,2.5-2.2,4.9-5.3,8.1c0.7-0.1,1.5-0.1,2.2-0.1h3.7v1.4h-8.4V26.2z"/>
	<path class="st1" d="M152.8,20.6c0-4.4,1.6-6.7,4.2-6.7c2.6,0,4.2,2.4,4.2,6.7c0,4.4-1.6,6.8-4.2,6.8
		C154.4,27.4,152.8,25,152.8,20.6z M159.5,20.6c0-3.8-1-5.4-2.5-5.4c-1.5,0-2.5,1.5-2.5,5.4c0,3.8,1,5.5,2.5,5.5
		C158.4,26.1,159.5,24.4,159.5,20.6z"/>
	<path class="st1" d="M162.8,26.2c3.9-3.9,6.1-6.3,6.1-8.4c0-1.5-0.8-2.5-2.5-2.5c-1.1,0-2,0.7-2.8,1.6l-1-1c1.1-1.2,2.3-2,3.9-2
		c2.4,0,3.9,1.5,3.9,3.8c0,2.5-2.2,4.9-5.3,8.1c0.7-0.1,1.5-0.1,2.2-0.1h3.7v1.4h-8.4V26.2z"/>
	<path class="st1" d="M178.3,18.4c0-0.7,0.1-1.8,0.1-2.5h-0.1c-0.3,0.6-0.7,1.2-1.1,1.8l-3,4.5h7.4v1.3h-9.2v-1.1l5.5-8.3h1.9v13.1
		h-1.6V18.4z"/>
</g>
</svg>
