<?xml version="1.0" encoding="UTF-8"?><svg id="Capa_1" xmlns="http://www.w3.org/2000/svg" viewBox="0 0 19.04 23.98"><defs><style>.cls-1{fill:#a09269;fill-rule:evenodd;stroke-width:0px;}</style></defs><path class="cls-1" d="M6.31.87c1.23,2.86,1.79,2.91,2.93,6.99.77,2.77.96,5.93.52,8.86-.59-.53-.55-1.1-1.54-1.79-2.5-1.74-5.07-1.25-6.92.72-4.18,4.46,2.64,11.52,7.45,6.71,1.07-1.07,1.58-2.87,2.01-4.64,1.08-4.43.63-7.46.12-11.87,8.14-1.57,6.06,5.13,5.25,9.21,1.47-2.59,4.08-8.83,2.35-12.29C16.57-1.04,10.57-.13,6.31.87h0Z"/></svg>