<?xml version="1.0" encoding="UTF-8"?><svg id="Capa_1" xmlns="http://www.w3.org/2000/svg" viewBox="0 0 597.5 119.62"><defs><style>.cls-1{fill:#e1d9c7;fill-rule:evenodd;stroke-width:0px;}</style></defs><path class="cls-1" d="M0,4.43l14.49.36c1.69.2,2.63.32,4.75.28,1.78-.03,2.68.31,4.71.3,1.7,0,3.35-.02,5.05,0,3.35.03,6.73.01,10.08.05.19.27.42.44.31.86,4.03-.25,11.16-.76,15.43-.19,2.18.29,2.44-.15,4.74,0l11.37.6c1.23.17.53.5,3.1.26,2.06-.19,3.61.23,5.12.3,1.05.05,6.01-.61,10.05-.29,4.45.35,11.71-.1,15.76.43,2.45.32,1.48.47,4.71.44,7.02-.08,13.85.86,20.55.22,1.68-.16,3.27.32,4.74.46,1.65.16,3.6.05,5.29.05l20.76.09c6.24.72,14.08-.13,20.36.7,3.18.42,7.7-.86,10.14-.02,1.63.56,2.97.43,4.84.41.76,0,1.84-.1,2.56-.03,2.08.21.74.47,2.16.62,1.45-.42-.73.41.4-.31,1.73-1.11,4.58-.58,6.16.04,1.44.56,5.53.89,7.31.92l.33-.72c.23-.6-.04-.22.3-.88,2.55.44-.24,1.01,2.21,1.31l.49-1.82,1.67-.1c.71-.21.33-.02.79-.38-.36-.94-.95-.61-1.27-1.26l5.88-.19c.04.12.14.33.16.38.02.03.07.14.1.18l.23.36c.26.39.48.63.66.91l3.73-.16c-.06-.18-.14-.21-.17-.34-.04-.15-.31-.4-.35-.44-.43-.41-.27-.23-.81-.57-.9-.57-.21.26-1.12-.99.17-.09-.07.06.3-.31l2.26-1.29c2.78-.95,7.03.33,8.55.45,1.97.15,2.42-.13,2.83-1.29l11.03.05c.04.1.13.27.16.32.02.03.07.13.1.17l.24.34c1.25,1.56,2.71,1.37,4.77,1.38-.17-2.4-.15-.96-.69-1.93l2.04-.04.63-1.52c.41.56-.02.16.7.46,1.19.5,1.06.77,2.83.85l.39,1.8c1.32-.06,1.47.02,2.5-.3,1.16-.36.94-.33,2.52-.38l-.21-2.65c1.93.16,2.27.89,3.24,1.25,1.45-1.5,3.15-.63,5.4-.71.83-.03,1.53-.47,2.78-.45,1.16.02,1.84.28,3.48.25,4.84-.09,10.11.29,14.84,0-.15-2.59-.65.49-.85-1.81,1.39-.04,3.3-.17,4.23.29-.33.79-.89.34-1.27,1.28,3.21-.01,7.03.21,10.17-.05l29.3.78c.9-1.12,1.24-1.9,3.25-1.43l3.14.59c2.09.59,4.85,1.75,7.91.17,1.09-.56,2.03-.91,2.73-1.65.97-1.03-.56-.19.93-.86,2.87.08.73.51,2.5,1.39,1.02.51,2.62.23,3.8.25.06.06.14.24.17.19.01-.03.6,1.17,2.24,1.01,4.36-.43,4.18-1.19,6.4-1.22,2.68-.04,1.79.21,3.39.78.99.35,2.41.1,3.56.18,1.48.11,1.91.67,3.3.5,3.7-.46,3.18.52,6.87.35,1.32-4.55,1.79-2.54,2.85-1.87.91-1.15.69-.57,2.39-.65,1.97-.09,3.05-2.24,4.34,1.21.02.05.04.15.08.22,1.62,0,2.82.22,4.18-.18,1.56-.45,6.04-.82,7.32.69l1.74,2.68,1.89.02c.05-.08.11-.1.13-.22l.37-.59c.27-.42.19-.36.45-.68,1.74-.05,2.35.25,3.77.28,1.3.03,2.73-.12,4.11-.11,1.47,1.68.82,1.64,3.75,1.97,2.27.26,2.19.9,4.92.44,2.32-.39,2.32.59,4.88.52,1.27-.04,1.74-.33,2.56-.37,1.43-.07.88.31,2.49.28.55-1.14.56-1.62,2.06-2.06,1.19-.35,2.48-.19,2.99,1.13l-.47.17c-1.5.33-3.09-.26-3.4,1.41.45.3-.02.19.76.29,1.05.14,1.68-.54,2.62-.79,1.35-.36,3.03.98,3.7-.45-.63-1.3-.98-.16-2.27-.95.2-1.38.14-.79,1.2-1.31l1.31-1.13c2.18-.07,3.36.13,5.71-.04,1.16-.08,4.29.31,5.84.45,1.62,2.02-.42,1.78,3.21,2.11,1.64.15,3.62-.15,4.7,0,3.24.43,2.81-.7,4.19-.08.15.07,1.25.87,1.5,1.04,1,.66.79.48,1.95.92l1.74,1.07c.05.04.13.09.19.13l1.32.87c1.8.54,2.45-.4,4.68.7,1.69.84,2.9.15,5,.3,2.77.19,3.55,1.34,3.78,1.38,1.5,0,3.91.22,5.29.02.3-.04,1.74-.5,1.86-.58,1.07-.66.08-1.43,2.31-1.55l3.42.39c3.05.82,11.17-.57,14.26.59,4.99,1.87,6.26-.24,10.59.44,1.86.29,3.85-.12,5.62.39,1.25.36,4.04.91,5.41.66,1.92-.34,4.06-1.37,6.12-2.08,3.47-1.2,7.29-1.07,11.32-1.17,0,0,.14.5-.4.08-.77-.6-.47.27-.23-.56,2.19-.54,1.74.11,3.44-.05,1.36-.13.51-.32,1.49-.62l1.18.29.83-1.82c2.7.36,2.46.27,3.78,1.86,1.91,0,5.83-.11,7.52.15,1.22.19,1.38.44,3.18.6,1.49.14,1.69.39,3.43.39.48.98.33,1.69,1.53,2.25,1.54.72,3.71.24,5.39.58.7.14,1.14.55,1.53.7,1.05.41,2.64.18,3.89.21v106.2c-203.26-95.18-398.34,0-597.5,0V4.43h0Z"/></svg>